<?xml version="1.0" encoding="UTF-8" standalone="no"?>
<!-- Created with Inkscape (http://www.inkscape.org/) -->

<svg
   xmlns:dc="http://purl.org/dc/elements/1.1/"
   xmlns:cc="http://creativecommons.org/ns#"
   xmlns:rdf="http://www.w3.org/1999/02/22-rdf-syntax-ns#"
   xmlns:svg="http://www.w3.org/2000/svg"
   xmlns="http://www.w3.org/2000/svg"
   xmlns:sodipodi="http://sodipodi.sourceforge.net/DTD/sodipodi-0.dtd"
   xmlns:inkscape="http://www.inkscape.org/namespaces/inkscape"
   id="svg2"
   version="1.1"
   inkscape:version="0.91 r13725"
   xml:space="preserve"
   width="417.5"
   height="641.25"
   viewBox="0 0 417.5 641.25"
   sodipodi:docname="kudos-memory.svg"
   inkscape:export-filename="/home/nicklas/Documents/Uni/instruktor/kudos/docs/kudos-memory.png"
   inkscape:export-xdpi="90"
   inkscape:export-ydpi="90"><metadata
     id="metadata8"><rdf:RDF><cc:Work
         rdf:about=""><dc:format>image/svg+xml</dc:format><dc:type
           rdf:resource="http://purl.org/dc/dcmitype/StillImage" /><dc:title /></cc:Work></rdf:RDF></metadata><defs
     id="defs6" /><sodipodi:namedview
     pagecolor="#ffffff"
     bordercolor="#666666"
     borderopacity="1"
     objecttolerance="10"
     gridtolerance="10"
     guidetolerance="10"
     inkscape:pageopacity="0"
     inkscape:pageshadow="2"
     inkscape:window-width="1918"
     inkscape:window-height="1042"
     id="namedview4"
     showgrid="false"
     inkscape:zoom="3.2598802"
     inkscape:cx="208.75"
     inkscape:cy="206.49819"
     inkscape:window-x="0"
     inkscape:window-y="37"
     inkscape:window-maximized="0"
     inkscape:current-layer="g22" /><g
     id="g10"
     inkscape:groupmode="layer"
     inkscape:label="buenos_memory-eps-converted-to"
     transform="matrix(1.25,0,0,-1.25,0,641.25)"><g
       id="g12"
       transform="scale(0.1,0.1)"><path
         d="m 3330,1035 -2115,0"
         style="fill:none;stroke:#000000;stroke-width:4.5;stroke-linecap:butt;stroke-linejoin:miter;stroke-miterlimit:10;stroke-dasharray:none;stroke-opacity:1"
         id="path14"
         inkscape:connector-curvature="0" /><path
         d="m 1215,2250 2115,0"
         style="fill:none;stroke:#000000;stroke-width:4.5;stroke-linecap:butt;stroke-linejoin:miter;stroke-miterlimit:10;stroke-dasharray:none;stroke-opacity:1"
         id="path16"
         inkscape:connector-curvature="0" /><path
         d="m 1215,3105 2115,0"
         style="fill:none;stroke:#000000;stroke-width:4.5;stroke-linecap:butt;stroke-linejoin:miter;stroke-miterlimit:10;stroke-dasharray:none;stroke-opacity:1"
         id="path18"
         inkscape:connector-curvature="0" /><path
         d="m 1215,45 2115,0 0,5040 -2115,0 0,-5040 z"
         style="fill:none;stroke:#000000;stroke-width:4.5;stroke-linecap:butt;stroke-linejoin:miter;stroke-miterlimit:10;stroke-dasharray:none;stroke-opacity:1"
         id="path20"
         inkscape:connector-curvature="0" /><g
         id="g22"
         transform="scale(10,10)"><text
           transform="matrix(1,0,0,-1,4.5,103.5)"
           style="font-variant:normal;font-weight:normal;font-size:10.80000019px;font-family:'Times New Roman';-inkscape-font-specification:Times-Roman;writing-mode:lr-tb;fill:#000000;fill-opacity:1;fill-rule:nonzero;stroke:none"
           id="text24"><tspan
             x="0 5.4000001 10.8 16.200001 21.6 27 32.400002 37.799999 43.200001 48.599998"
             y="0"
             sodipodi:role="line"
             id="tspan26">0x00010000</tspan><tspan
             x="-4.5 3.2976 9.8964005 17.1 24.8976 31.496401 43.495201 50.094002 57.891602 65.689201 65.689201 77.094002 84.891602 91.490402 98.694"
             y="-117"
             sodipodi:role="line"
             id="tspan28">KERNELENDS HERE</tspan><tspan
             x="-4.5 -0.29879999 2.7035999 7.4987998 10.5012 13.5036 18.2988 20.9988 29.401199 34.1964 42.598801 47.998798 51.5952 56.995201 59.695202 64.490402 69.890404"
             y="-202.5"
             sodipodi:role="line"
             id="tspan30">static memory end</tspan><tspan
             x="0 5.4000001 10.8 16.200001 21.6 27 32.400002 37.799999 43.200001 48.599998"
             y="103.5"
             sodipodi:role="line"
             id="tspan32">0x00000000</tspan><tspan
             x="0 4.7951999 10.1952 15.5952 18.2952 23.6952 27.291599 29.9916 35.391602 40.791599 46.191601 50.392799 53.395199 58.190399 62.9856 65.987999 68.688004 77.090401 81.885597 90.288002 95.688004 99.284401"
             y="-400.5"
             sodipodi:role="line"
             id="tspan34">end of physical memory</tspan><tspan
             x="130.5 138.29761 143.6976 149.0976 153.89281 162.2952 165.29761 170.0928 172.7928 181.19521 185.9904 194.39281 199.7928 203.38921 208.7892 211.4892 216.28439 219.2868 222.2892 227.68919 232.48441 237.2796 240.282 245.07719 250.4772 253.1772 258.57721 262.77841 265.78079 271.18079 276.58081 279.28079 284.68079 289.47601 294.87601 299.6712 305.0712 310.47119 315.87119"
             y="-310.5"
             sodipodi:role="line"
             id="tspan36">Dynamic memory allocated using pagepool</tspan><tspan
             x="184.5 188.09641 193.4964 196.49879 201.29401 204.8904 208.4868 213.8868 219.2868 222.2892 224.9892 230.38921 235.1844 239.9796 242.98199 248.382 251.97839"
             y="85.5"
             sodipodi:role="line"
             id="tspan38">Interrupt vectors</tspan><tspan
             x="153 159.00481 162.0072 166.8024 171.5976 176.9976 179.6976 183.29401 188.694 192.29041 194.9904 202.78799 208.7928 211.4928 214.49519 219.8952 222.8976 225.89999 228.9024 233.6976 236.7 239.70239 244.4976 249.2928 252.2952 255.29761 260.6976 266.0976 268.79761 273.5928 278.9928 284.39279"
             y="18"
             sodipodi:role="line"
             id="tspan40">Stack for OS initialization code</tspan><tspan
             x="175.5 218.7 221.39999 226.8 231.5952 235.1916 240.5916 245.3868 248.38921 251.0892 254.0916 262.49399 267.28922 272.68921"
             sodipodi:role="line"
             id="tspan42"
             y="-54">  kernel image</tspan><tspan
             x="162 171.6012 176.39639 184.7988 190.19881 193.7952 199.19521 201.8952 206.6904 209.69279 212.69521 218.0952 222.8904 227.68559 230.688 235.4832 240.88319 243.58321 248.9832 254.38319"
             y="-157.5"
             sodipodi:role="line"
             id="tspan44">Memory allocated by stalloc</tspan></text>
</g></g></g></svg>