<?xml version="1.0" encoding="UTF-8" standalone="no"?>
<!-- Created with Inkscape (http://www.inkscape.org/) -->

<svg
   xmlns:dc="http://purl.org/dc/elements/1.1/"
   xmlns:cc="http://creativecommons.org/ns#"
   xmlns:rdf="http://www.w3.org/1999/02/22-rdf-syntax-ns#"
   xmlns:svg="http://www.w3.org/2000/svg"
   xmlns="http://www.w3.org/2000/svg"
   xmlns:sodipodi="http://sodipodi.sourceforge.net/DTD/sodipodi-0.dtd"
   xmlns:inkscape="http://www.inkscape.org/namespaces/inkscape"
   id="svg4155"
   version="1.1"
   inkscape:version="0.91 r13725"
   xml:space="preserve"
   width="672.5"
   height="188.75"
   viewBox="0 0 672.5 188.75"
   sodipodi:docname="sleepq.svg"><metadata
     id="metadata4161"><rdf:RDF><cc:Work
         rdf:about=""><dc:format>image/svg+xml</dc:format><dc:type
           rdf:resource="http://purl.org/dc/dcmitype/StillImage" /><dc:title></dc:title></cc:Work></rdf:RDF></metadata><defs
     id="defs4159"><clipPath
       clipPathUnits="userSpaceOnUse"
       id="clipPath4241"><path
         d="m 0,0 0,1510 5380,0 L 5380,0 0,0 Z m 753,357 -18,-72 -18,72 0,-81 36,0 0,81 z"
         id="path4243"
         inkscape:connector-curvature="0" /></clipPath><clipPath
       clipPathUnits="userSpaceOnUse"
       id="clipPath4255"><path
         d="m 0,0 0,1510 5380,0 L 5380,0 0,0 Z m 1743,942 -18,-72 -18,72 0,-81 36,0 0,81 z"
         id="path4257"
         inkscape:connector-curvature="0" /></clipPath><clipPath
       clipPathUnits="userSpaceOnUse"
       id="clipPath4269"><path
         d="m 0,0 0,1510 5380,0 L 5380,0 0,0 Z m 1833,168 72,-18 -72,-18 81,0 0,36 -81,0 z"
         id="path4271"
         inkscape:connector-curvature="0" /></clipPath><clipPath
       clipPathUnits="userSpaceOnUse"
       id="clipPath4283"><path
         d="m 0,0 0,1510 5380,0 L 5380,0 0,0 Z m 3498,168 72,-18 -72,-18 81,0 0,36 -81,0 z"
         id="path4285"
         inkscape:connector-curvature="0" /></clipPath><clipPath
       clipPathUnits="userSpaceOnUse"
       id="clipPath4297"><path
         d="m 0,0 0,1510 5380,0 L 5380,0 0,0 Z m 3138,753 72,-18 -72,-18 81,0 0,36 -81,0 z"
         id="path4299"
         inkscape:connector-curvature="0" /></clipPath></defs><sodipodi:namedview
     pagecolor="#ffffff"
     bordercolor="#666666"
     borderopacity="1"
     objecttolerance="10"
     gridtolerance="10"
     guidetolerance="10"
     inkscape:pageopacity="0"
     inkscape:pageshadow="2"
     inkscape:window-width="1364"
     inkscape:window-height="747"
     id="namedview4157"
     showgrid="false"
     inkscape:zoom="1.2386617"
     inkscape:cx="336.25"
     inkscape:cy="94.375"
     inkscape:window-x="0"
     inkscape:window-y="0"
     inkscape:window-maximized="0"
     inkscape:current-layer="g4163" /><g
     id="g4163"
     inkscape:groupmode="layer"
     inkscape:label="ink_ext_XXXXXX"
     transform="matrix(1.25,0,0,-1.25,0,188.75)"><g
       id="g4165"
       transform="scale(0.1,0.1)"><path
         d="m 15,1185 5355,0 0,315 -5355,0 0,-315 z"
         style="fill:none;stroke:#000000;stroke-width:4.5;stroke-linecap:butt;stroke-linejoin:miter;stroke-miterlimit:10;stroke-dasharray:none;stroke-opacity:1"
         id="path4167"
         inkscape:connector-curvature="0" /><path
         d="m 510,1500 0,-315"
         style="fill:none;stroke:#000000;stroke-width:4.5;stroke-linecap:butt;stroke-linejoin:miter;stroke-miterlimit:10;stroke-dasharray:none;stroke-opacity:1"
         id="path4169"
         inkscape:connector-curvature="0" /><path
         d="m 1005,1500 0,-315"
         style="fill:none;stroke:#000000;stroke-width:4.5;stroke-linecap:butt;stroke-linejoin:miter;stroke-miterlimit:10;stroke-dasharray:none;stroke-opacity:1"
         id="path4171"
         inkscape:connector-curvature="0" /><path
         d="m 1500,1500 0,-315"
         style="fill:none;stroke:#000000;stroke-width:4.5;stroke-linecap:butt;stroke-linejoin:miter;stroke-miterlimit:10;stroke-dasharray:none;stroke-opacity:1"
         id="path4173"
         inkscape:connector-curvature="0" /><path
         d="m 1995,1500 0,-315"
         style="fill:none;stroke:#000000;stroke-width:4.5;stroke-linecap:butt;stroke-linejoin:miter;stroke-miterlimit:10;stroke-dasharray:none;stroke-opacity:1"
         id="path4175"
         inkscape:connector-curvature="0" /><path
         d="m 2445,1500 0,-315"
         style="fill:none;stroke:#000000;stroke-width:4.5;stroke-linecap:butt;stroke-linejoin:miter;stroke-miterlimit:10;stroke-dasharray:none;stroke-opacity:1"
         id="path4177"
         inkscape:connector-curvature="0" /><path
         d="m 4875,1500 0,-315"
         style="fill:none;stroke:#000000;stroke-width:4.5;stroke-linecap:butt;stroke-linejoin:miter;stroke-miterlimit:10;stroke-dasharray:none;stroke-opacity:1"
         id="path4179"
         inkscape:connector-curvature="0" /><g
         id="g4181"
         transform="scale(10,10)"><text
           transform="matrix(1,0,0,-1,168,132)"
           style="font-variant:normal;font-weight:normal;font-size:10.80000019px;font-family:Times;-inkscape-font-specification:Times-Roman;writing-mode:lr-tb;fill:#000000;fill-opacity:1;fill-rule:nonzero;stroke:none"
           id="text4183"><tspan
             x="0 -148.5 -99.000038 -49.500072 49.499966 162 164.7 167.39999 170.10001 172.8 175.5 178.2 180.89999 183.60001 186.3 189 191.7 194.39999 197.10001 199.8 202.5 205.2 207.89999 210.60001 332.99963 338.39963 343.79965"
             y="0"
             sodipodi:role="line"
             id="tspan4185">30124...................126</tspan></text>
</g><path
         d="m 1050,285 0,-270"
         style="fill:none;stroke:#000000;stroke-width:4.5;stroke-linecap:butt;stroke-linejoin:miter;stroke-miterlimit:10;stroke-dasharray:none;stroke-opacity:1"
         id="path4187"
         inkscape:connector-curvature="0" /><path
         d="m 285,15 1170,0 0,270 -1170,0 0,-270 z"
         style="fill:none;stroke:#000000;stroke-width:4.5;stroke-linecap:butt;stroke-linejoin:miter;stroke-miterlimit:10;stroke-dasharray:none;stroke-opacity:1"
         id="path4189"
         inkscape:connector-curvature="0" /><g
         id="g4191"
         transform="scale(10,10)"><text
           transform="matrix(1,0,0,-1,109.5,10.5)"
           style="font-variant:normal;font-weight:normal;font-size:10.80000019px;font-family:Times;-inkscape-font-specification:Times-Roman;writing-mode:lr-tb;fill:#000000;fill-opacity:1;fill-rule:nonzero;stroke:none"
           id="text4193"><tspan
             x="0 5.4000001 10.1952 15.5952 18.597601 -72 -67.798798 -64.796402 -60.001202 -55.206001 -49.806 -45.604801 -40.2048 -34.804798 -29.4048 -26.402399 -23.7024 -18.302401 -12.9024"
             y="0"
             sodipodi:role="line"
             id="tspan4195">next:sleeps_on: 128</tspan></text>
</g><path
         d="m 2670,285 0,-270"
         style="fill:none;stroke:#000000;stroke-width:4.5;stroke-linecap:butt;stroke-linejoin:miter;stroke-miterlimit:10;stroke-dasharray:none;stroke-opacity:1"
         id="path4197"
         inkscape:connector-curvature="0" /><path
         d="m 1905,15 1170,0 0,270 -1170,0 0,-270 z"
         style="fill:none;stroke:#000000;stroke-width:4.5;stroke-linecap:butt;stroke-linejoin:miter;stroke-miterlimit:10;stroke-dasharray:none;stroke-opacity:1"
         id="path4199"
         inkscape:connector-curvature="0" /><g
         id="g4201"
         transform="scale(10,10)"><text
           transform="matrix(1,0,0,-1,271.5,10.5)"
           style="font-variant:normal;font-weight:normal;font-size:10.80000019px;font-family:Times;-inkscape-font-specification:Times-Roman;writing-mode:lr-tb;fill:#000000;fill-opacity:1;fill-rule:nonzero;stroke:none"
           id="text4203"><tspan
             x="0 5.4000001 10.1952 15.5952 18.597601 -72 -67.798798 -64.796402 -60.001202 -55.206001 -49.806 -45.604801 -40.2048 -34.804798 -29.4048 -26.402399 -23.7024"
             y="0"
             sodipodi:role="line"
             id="tspan4205">next:sleeps_on: 1</tspan></text>
</g><path
         d="m 4335,285 0,-270"
         style="fill:none;stroke:#000000;stroke-width:4.5;stroke-linecap:butt;stroke-linejoin:miter;stroke-miterlimit:10;stroke-dasharray:none;stroke-opacity:1"
         id="path4207"
         inkscape:connector-curvature="0" /><path
         d="m 3570,15 1170,0 0,270 -1170,0 0,-270 z"
         style="fill:none;stroke:#000000;stroke-width:4.5;stroke-linecap:butt;stroke-linejoin:miter;stroke-miterlimit:10;stroke-dasharray:none;stroke-opacity:1"
         id="path4209"
         inkscape:connector-curvature="0" /><g
         id="g4211"
         transform="scale(10,10)"><text
           transform="matrix(1,0,0,-1,438,10.5)"
           style="font-variant:normal;font-weight:normal;font-size:10.80000019px;font-family:Times;-inkscape-font-specification:Times-Roman;writing-mode:lr-tb;fill:#000000;fill-opacity:1;fill-rule:nonzero;stroke:none"
           id="text4213"><tspan
             x="0 5.4000001 10.1952 15.5952 18.597601 -72 -67.798798 -64.796402 -60.001202 -55.206001 -49.806 -45.604801 -40.2048 -34.804798 -29.4048 -26.402399 -23.7024 -18.302401 -12.9024"
             y="0"
             sodipodi:role="line"
             id="tspan4215">next:sleeps_on: 128</tspan></text>
</g><path
         d="m 2265,870 0,-270"
         style="fill:none;stroke:#000000;stroke-width:4.5;stroke-linecap:butt;stroke-linejoin:miter;stroke-miterlimit:10;stroke-dasharray:none;stroke-opacity:1"
         id="path4217"
         inkscape:connector-curvature="0" /><path
         d="m 1500,600 1170,0 0,270 -1170,0 0,-270 z"
         style="fill:none;stroke:#000000;stroke-width:4.5;stroke-linecap:butt;stroke-linejoin:miter;stroke-miterlimit:10;stroke-dasharray:none;stroke-opacity:1"
         id="path4219"
         inkscape:connector-curvature="0" /><g
         id="g4221"
         transform="scale(10,10)"><text
           transform="matrix(1,0,0,-1,231,69)"
           style="font-variant:normal;font-weight:normal;font-size:10.80000019px;font-family:Times;-inkscape-font-specification:Times-Roman;writing-mode:lr-tb;fill:#000000;fill-opacity:1;fill-rule:nonzero;stroke:none"
           id="text4223"><tspan
             x="0 5.4000001 10.1952 15.5952 18.597601 -72 -67.798798 -64.796402 -60.001202 -55.206001 -49.806 -45.604801 -40.2048 -34.804798 -29.4048 -26.402399 -23.7024 -18.302401 -12.9024"
             y="0"
             sodipodi:role="line"
             id="tspan4225">next:sleeps_on: 257</tspan></text>
</g><path
         d="m 3975,870 0,-270"
         style="fill:none;stroke:#000000;stroke-width:4.5;stroke-linecap:butt;stroke-linejoin:miter;stroke-miterlimit:10;stroke-dasharray:none;stroke-opacity:1"
         id="path4227"
         inkscape:connector-curvature="0" /><path
         d="m 3210,600 1170,0 0,270 -1170,0 0,-270 z"
         style="fill:none;stroke:#000000;stroke-width:4.5;stroke-linecap:butt;stroke-linejoin:miter;stroke-miterlimit:10;stroke-dasharray:none;stroke-opacity:1"
         id="path4229"
         inkscape:connector-curvature="0" /><g
         id="g4231"
         transform="scale(10,10)"><text
           transform="matrix(1,0,0,-1,402,69)"
           style="font-variant:normal;font-weight:normal;font-size:10.80000019px;font-family:Times;-inkscape-font-specification:Times-Roman;writing-mode:lr-tb;fill:#000000;fill-opacity:1;fill-rule:nonzero;stroke:none"
           id="text4233"><tspan
             x="0 5.4000001 10.1952 15.5952 18.597601 -72 -67.798798 -64.796402 -60.001202 -55.206001 -49.806 -45.604801 -40.2048 -34.804798 -29.4048 -26.402399 -23.7024 -18.302401 -12.9024"
             y="0"
             sodipodi:role="line"
             id="tspan4235">next:sleeps_on: 257</tspan></text>
</g><g
         id="g4237"><g
           id="g4239"
           clip-path="url(#clipPath4241)"><path
             d="m 735,1185 0,-900"
             style="fill:none;stroke:#000000;stroke-width:4.5;stroke-linecap:butt;stroke-linejoin:miter;stroke-miterlimit:10;stroke-dasharray:none;stroke-opacity:1"
             id="path4245"
             inkscape:connector-curvature="0" /></g></g><path
         d="m 753,357 -18,-72 -18,72 36,0"
         style="fill:#000000;fill-opacity:1;fill-rule:evenodd;stroke:none"
         id="path4247"
         inkscape:connector-curvature="0" /><path
         d="m 753,357 -18,-72 -18,72 36,0 z"
         style="fill:none;stroke:#000000;stroke-width:4.5;stroke-linecap:butt;stroke-linejoin:miter;stroke-miterlimit:10;stroke-dasharray:none;stroke-opacity:1"
         id="path4249"
         inkscape:connector-curvature="0" /><g
         id="g4251"><g
           id="g4253"
           clip-path="url(#clipPath4255)"><path
             d="m 1725,1185 0,-315"
             style="fill:none;stroke:#000000;stroke-width:4.5;stroke-linecap:butt;stroke-linejoin:miter;stroke-miterlimit:10;stroke-dasharray:none;stroke-opacity:1"
             id="path4259"
             inkscape:connector-curvature="0" /></g></g><path
         d="m 1743,942 -18,-72 -18,72 36,0"
         style="fill:#000000;fill-opacity:1;fill-rule:evenodd;stroke:none"
         id="path4261"
         inkscape:connector-curvature="0" /><path
         d="m 1743,942 -18,-72 -18,72 36,0 z"
         style="fill:none;stroke:#000000;stroke-width:4.5;stroke-linecap:butt;stroke-linejoin:miter;stroke-miterlimit:10;stroke-dasharray:none;stroke-opacity:1"
         id="path4263"
         inkscape:connector-curvature="0" /><g
         id="g4265"><g
           id="g4267"
           clip-path="url(#clipPath4269)"><path
             d="m 1365,150 540,0"
             style="fill:none;stroke:#000000;stroke-width:4.5;stroke-linecap:butt;stroke-linejoin:miter;stroke-miterlimit:10;stroke-dasharray:none;stroke-opacity:1"
             id="path4273"
             inkscape:connector-curvature="0" /></g></g><path
         d="m 1833,168 72,-18 -72,-18 0,36"
         style="fill:#000000;fill-opacity:1;fill-rule:evenodd;stroke:none"
         id="path4275"
         inkscape:connector-curvature="0" /><path
         d="m 1833,168 72,-18 -72,-18 0,36 z"
         style="fill:none;stroke:#000000;stroke-width:4.5;stroke-linecap:butt;stroke-linejoin:miter;stroke-miterlimit:10;stroke-dasharray:none;stroke-opacity:1"
         id="path4277"
         inkscape:connector-curvature="0" /><g
         id="g4279"><g
           id="g4281"
           clip-path="url(#clipPath4283)"><path
             d="m 2985,150 585,0"
             style="fill:none;stroke:#000000;stroke-width:4.5;stroke-linecap:butt;stroke-linejoin:miter;stroke-miterlimit:10;stroke-dasharray:none;stroke-opacity:1"
             id="path4287"
             inkscape:connector-curvature="0" /></g></g><path
         d="m 3498,168 72,-18 -72,-18 0,36"
         style="fill:#000000;fill-opacity:1;fill-rule:evenodd;stroke:none"
         id="path4289"
         inkscape:connector-curvature="0" /><path
         d="m 3498,168 72,-18 -72,-18 0,36 z"
         style="fill:none;stroke:#000000;stroke-width:4.5;stroke-linecap:butt;stroke-linejoin:miter;stroke-miterlimit:10;stroke-dasharray:none;stroke-opacity:1"
         id="path4291"
         inkscape:connector-curvature="0" /><g
         id="g4293"><g
           id="g4295"
           clip-path="url(#clipPath4297)"><path
             d="m 2580,735 630,0"
             style="fill:none;stroke:#000000;stroke-width:4.5;stroke-linecap:butt;stroke-linejoin:miter;stroke-miterlimit:10;stroke-dasharray:none;stroke-opacity:1"
             id="path4301"
             inkscape:connector-curvature="0" /></g></g><path
         d="m 3138,753 72,-18 -72,-18 0,36"
         style="fill:#000000;fill-opacity:1;fill-rule:evenodd;stroke:none"
         id="path4303"
         inkscape:connector-curvature="0" /><path
         d="m 3138,753 72,-18 -72,-18 0,36 z"
         style="fill:none;stroke:#000000;stroke-width:4.5;stroke-linecap:butt;stroke-linejoin:miter;stroke-miterlimit:10;stroke-dasharray:none;stroke-opacity:1"
         id="path4305"
         inkscape:connector-curvature="0" /></g></g></svg>